<svg xmlns="http://www.w3.org/2000/svg" viewBox="0 0 600 300" fill="none">
  <defs>
    <linearGradient id="bg" x1="0%" y1="0%" x2="100%" y2="100%">
      <stop offset="0%" stop-color="#6366f1"/>
      <stop offset="100%" stop-color="#2ecaa0"/>
    </linearGradient>
  </defs>
  <rect width="600" height="300" fill="url(#bg)"/>
  <!-- Paper document (analog) -->
  <rect x="60" y="60" width="100" height="130" rx="4" fill="white" opacity="0.18" transform="rotate(-5 110 125)"/>
  <rect x="74" y="80" width="72" height="5" rx="1.5" fill="white" opacity="0.3" transform="rotate(-5 110 82)"/>
  <rect x="74" y="92" width="60" height="5" rx="1.5" fill="white" opacity="0.2" transform="rotate(-5 104 94)"/>
  <rect x="74" y="104" width="72" height="5" rx="1.5" fill="white" opacity="0.2" transform="rotate(-5 110 106)"/>
  <rect x="74" y="116" width="45" height="5" rx="1.5" fill="white" opacity="0.2" transform="rotate(-5 96 118)"/>
  <!-- Pen icon -->
  <line x1="140" y1="170" x2="155" y2="155" stroke="white" stroke-width="2.5" opacity="0.3" stroke-linecap="round"/>
  <!-- Arrow flow -->
  <path d="M195 130 Q 240 100 285 130" stroke="white" stroke-width="2.5" opacity="0.35" fill="none" stroke-linecap="round"/>
  <path d="M275 120 L288 130 L278 140" stroke="white" stroke-width="2.5" opacity="0.35" fill="none" stroke-linecap="round" stroke-linejoin="round"/>
  <!-- Digital flowchart -->
  <!-- Start node -->
  <rect x="320" y="50" width="80" height="36" rx="18" fill="white" opacity="0.2"/>
  <rect x="338" y="64" width="44" height="8" rx="2" fill="white" opacity="0.35"/>
  <!-- Process boxes -->
  <rect x="330" y="110" width="60" height="36" rx="6" fill="white" opacity="0.15"/>
  <rect x="340" y="122" width="40" height="6" rx="2" fill="white" opacity="0.25"/>
  <!-- Decision diamond -->
  <polygon points="450,128 480,108 510,128 480,148" fill="white" opacity="0.15"/>
  <!-- End boxes -->
  <rect x="420" y="170" width="60" height="36" rx="6" fill="white" opacity="0.15"/>
  <rect x="430" y="182" width="40" height="6" rx="2" fill="white" opacity="0.25"/>
  <rect x="500" y="170" width="60" height="36" rx="6" fill="white" opacity="0.15"/>
  <rect x="510" y="182" width="40" height="6" rx="2" fill="white" opacity="0.25"/>
  <!-- Flow arrows -->
  <line x1="360" y1="86" x2="360" y2="110" stroke="white" stroke-width="1.5" opacity="0.25"/>
  <line x1="390" y1="128" x2="450" y2="128" stroke="white" stroke-width="1.5" opacity="0.25"/>
  <line x1="480" y1="148" x2="450" y2="170" stroke="white" stroke-width="1.5" opacity="0.25"/>
  <line x1="480" y1="148" x2="530" y2="170" stroke="white" stroke-width="1.5" opacity="0.25"/>
  <!-- Bottom: digital dashboard -->
  <rect x="310" y="230" width="260" height="50" rx="8" fill="white" opacity="0.1"/>
  <rect x="322" y="242" width="30" height="26" rx="4" fill="#2ecaa0" opacity="0.25"/>
  <rect x="360" y="248" width="30" height="20" rx="4" fill="white" opacity="0.15"/>
  <rect x="398" y="244" width="30" height="24" rx="4" fill="#2ecaa0" opacity="0.2"/>
  <rect x="436" y="252" width="30" height="16" rx="4" fill="white" opacity="0.15"/>
  <rect x="474" y="240" width="30" height="28" rx="4" fill="#2ecaa0" opacity="0.2"/>
  <rect x="512" y="246" width="30" height="22" rx="4" fill="white" opacity="0.15"/>
  <!-- Decorative -->
  <circle cx="560" cy="40" r="22" fill="white" opacity="0.04"/>
  <circle cx="40" cy="260" r="28" fill="white" opacity="0.04"/>
</svg>
