<svg xmlns="http://www.w3.org/2000/svg" viewBox="0 0 600 300" fill="none">
  <defs>
    <linearGradient id="bg" x1="0%" y1="0%" x2="100%" y2="100%">
      <stop offset="0%" stop-color="#2ecaa0"/>
      <stop offset="100%" stop-color="#22d3ee"/>
    </linearGradient>
  </defs>
  <rect width="600" height="300" fill="url(#bg)"/>
  <!-- Kanban board -->
  <rect x="50" y="40" width="500" height="220" rx="14" fill="white" opacity="0.12"/>
  <!-- Column headers -->
  <rect x="70" y="55" width="140" height="24" rx="5" fill="white" opacity="0.15"/>
  <rect x="82" y="62" width="50" height="10" rx="3" fill="white" opacity="0.35"/>
  <rect x="230" y="55" width="140" height="24" rx="5" fill="white" opacity="0.15"/>
  <rect x="242" y="62" width="60" height="10" rx="3" fill="white" opacity="0.35"/>
  <rect x="390" y="55" width="140" height="24" rx="5" fill="white" opacity="0.15"/>
  <rect x="402" y="62" width="40" height="10" rx="3" fill="white" opacity="0.35"/>
  <!-- To Do cards -->
  <rect x="70" y="90" width="140" height="50" rx="8" fill="white" opacity="0.18"/>
  <rect x="82" y="102" width="90" height="6" rx="2" fill="white" opacity="0.3"/>
  <rect x="82" y="114" width="60" height="6" rx="2" fill="white" opacity="0.2"/>
  <circle cx="190" cy="126" r="8" fill="white" opacity="0.15"/>
  <rect x="70" y="150" width="140" height="50" rx="8" fill="white" opacity="0.18"/>
  <rect x="82" y="162" width="100" height="6" rx="2" fill="white" opacity="0.3"/>
  <rect x="82" y="174" width="70" height="6" rx="2" fill="white" opacity="0.2"/>
  <!-- In Progress cards -->
  <rect x="230" y="90" width="140" height="50" rx="8" fill="white" opacity="0.22"/>
  <rect x="242" y="102" width="80" height="6" rx="2" fill="white" opacity="0.35"/>
  <rect x="242" y="114" width="110" height="6" rx="2" fill="white" opacity="0.2"/>
  <circle cx="350" cy="126" r="8" fill="white" opacity="0.2"/>
  <!-- Done cards -->
  <rect x="390" y="90" width="140" height="50" rx="8" fill="white" opacity="0.18"/>
  <rect x="402" y="102" width="70" height="6" rx="2" fill="white" opacity="0.3"/>
  <rect x="402" y="114" width="100" height="6" rx="2" fill="white" opacity="0.2"/>
  <circle cx="420" cy="126" r="6" stroke="white" stroke-width="2" opacity="0.4" fill="none"/>
  <path d="M416 126 L419 129 L425 123" stroke="white" stroke-width="2" opacity="0.4" stroke-linecap="round" stroke-linejoin="round"/>
  <rect x="390" y="150" width="140" height="50" rx="8" fill="white" opacity="0.18"/>
  <rect x="402" y="162" width="90" height="6" rx="2" fill="white" opacity="0.3"/>
  <rect x="402" y="174" width="60" height="6" rx="2" fill="white" opacity="0.2"/>
  <!-- Notification bell -->
  <circle cx="540" cy="45" r="12" fill="white" opacity="0.1"/>
  <circle cx="540" cy="45" r="4" fill="white" opacity="0.25"/>
  <!-- Decorative -->
  <circle cx="580" cy="270" r="24" fill="white" opacity="0.04"/>
  <circle cx="20" cy="280" r="16" fill="white" opacity="0.04"/>
</svg>
