<svg xmlns="http://www.w3.org/2000/svg" viewBox="0 0 600 300" fill="none">
  <defs>
    <linearGradient id="bg" x1="0%" y1="0%" x2="100%" y2="100%">
      <stop offset="0%" stop-color="#1a3a6c"/>
      <stop offset="100%" stop-color="#7c3aed"/>
    </linearGradient>
  </defs>
  <rect width="600" height="300" fill="url(#bg)"/>
  <!-- Code editor window -->
  <rect x="60" y="40" width="280" height="220" rx="12" fill="white" opacity="0.1"/>
  <rect x="60" y="40" width="280" height="28" rx="12" fill="white" opacity="0.06"/>
  <circle cx="80" cy="54" r="5" fill="#ff6b6b" opacity="0.35"/>
  <circle cx="96" cy="54" r="5" fill="#ffd93d" opacity="0.35"/>
  <circle cx="112" cy="54" r="5" fill="#6bff8a" opacity="0.35"/>
  <!-- Code lines -->
  <rect x="78" y="80" width="40" height="6" rx="2" fill="#7c3aed" opacity="0.3"/>
  <rect x="124" y="80" width="80" height="6" rx="2" fill="white" opacity="0.2"/>
  <rect x="90" y="94" width="60" height="6" rx="2" fill="#2ecaa0" opacity="0.3"/>
  <rect x="156" y="94" width="100" height="6" rx="2" fill="white" opacity="0.15"/>
  <rect x="90" y="108" width="80" height="6" rx="2" fill="white" opacity="0.15"/>
  <rect x="176" y="108" width="50" height="6" rx="2" fill="#2ecaa0" opacity="0.2"/>
  <rect x="90" y="122" width="120" height="6" rx="2" fill="white" opacity="0.15"/>
  <rect x="78" y="136" width="40" height="6" rx="2" fill="#7c3aed" opacity="0.3"/>
  <rect x="78" y="156" width="50" height="6" rx="2" fill="#7c3aed" opacity="0.3"/>
  <rect x="134" y="156" width="90" height="6" rx="2" fill="white" opacity="0.2"/>
  <rect x="90" y="170" width="70" height="6" rx="2" fill="#2ecaa0" opacity="0.25"/>
  <rect x="166" y="170" width="80" height="6" rx="2" fill="white" opacity="0.15"/>
  <rect x="90" y="184" width="100" height="6" rx="2" fill="white" opacity="0.15"/>
  <rect x="90" y="198" width="60" height="6" rx="2" fill="white" opacity="0.15"/>
  <rect x="78" y="212" width="40" height="6" rx="2" fill="#7c3aed" opacity="0.3"/>
  <rect x="78" y="226" width="30" height="6" rx="2" fill="#7c3aed" opacity="0.3"/>
  <!-- Performance dashboard -->
  <rect x="380" y="40" width="180" height="100" rx="10" fill="white" opacity="0.1"/>
  <rect x="392" y="52" width="60" height="6" rx="2" fill="white" opacity="0.25"/>
  <!-- Chart bars -->
  <rect x="400" y="100" width="18" height="28" rx="3" fill="white" opacity="0.15"/>
  <rect x="424" y="88" width="18" height="40" rx="3" fill="#2ecaa0" opacity="0.3"/>
  <rect x="448" y="80" width="18" height="48" rx="3" fill="white" opacity="0.15"/>
  <rect x="472" y="70" width="18" height="58" rx="3" fill="#2ecaa0" opacity="0.35"/>
  <rect x="496" y="76" width="18" height="52" rx="3" fill="white" opacity="0.2"/>
  <rect x="520" y="66" width="18" height="62" rx="3" fill="#2ecaa0" opacity="0.4"/>
  <!-- Team/users -->
  <rect x="380" y="160" width="180" height="100" rx="10" fill="white" opacity="0.1"/>
  <rect x="392" y="172" width="80" height="6" rx="2" fill="white" opacity="0.25"/>
  <!-- User avatars -->
  <circle cx="410" cy="205" r="14" fill="white" opacity="0.12"/>
  <circle cx="410" cy="200" r="6" fill="white" opacity="0.2"/>
  <path d="M398 214 Q410 208 422 214" stroke="white" stroke-width="1.5" opacity="0.2"/>
  <circle cx="450" cy="205" r="14" fill="white" opacity="0.12"/>
  <circle cx="450" cy="200" r="6" fill="white" opacity="0.2"/>
  <path d="M438 214 Q450 208 462 214" stroke="white" stroke-width="1.5" opacity="0.2"/>
  <circle cx="490" cy="205" r="14" fill="white" opacity="0.12"/>
  <circle cx="490" cy="200" r="6" fill="white" opacity="0.2"/>
  <path d="M478 214 Q490 208 502 214" stroke="white" stroke-width="1.5" opacity="0.2"/>
  <!-- Arrow from code to dashboard -->
  <path d="M340 100 Q 360 90 380 90" stroke="white" stroke-width="1.5" opacity="0.2" stroke-dasharray="4 3"/>
  <!-- Decorative -->
  <circle cx="570" cy="270" r="20" fill="white" opacity="0.04"/>
  <circle cx="30" cy="20" r="15" fill="white" opacity="0.04"/>
</svg>
